<svg width="700pt" height="700pt" viewBox="0 0 700 700" xmlns="http://www.w3.org/2000/svg"><defs><symbol id="n" overflow="visible"><path d="M33.5-2A23.447 23.447 0 0 1 28.094.016c-1.867.457-3.82.687-5.86.687-6.062 0-10.87-1.691-14.422-5.078-3.554-3.394-5.328-8-5.328-13.812 0-5.82 1.774-10.43 5.328-13.828 3.551-3.394 8.36-5.094 14.422-5.094 2.04 0 3.993.23 5.86.688a23.811 23.811 0 0 1 5.406 2.015v7.547c-1.742-1.187-3.46-2.055-5.156-2.61A17.115 17.115 0 0 0 23-30.295c-3.356 0-5.996 1.074-7.922 3.218-1.918 2.149-2.875 5.11-2.875 8.891 0 3.762.957 6.715 2.875 8.86C17.004-7.18 19.644-6.11 23-6.11c1.875 0 3.656-.273 5.344-.828 1.695-.55 3.414-1.422 5.156-2.61z"/></symbol><symbol id="h" overflow="visible"><path d="M24.516-19.891a11.01 11.01 0 0 0-2.297-.797 9.916 9.916 0 0 0-2.266-.266c-2.25 0-3.984.727-5.203 2.172-1.21 1.438-1.812 3.5-1.812 6.188V0H4.203v-27.344h8.735v4.484c1.125-1.78 2.414-3.082 3.875-3.906C18.27-27.586 20.016-28 22.047-28c.29 0 .61.011.953.031.344.023.836.074 1.485.156z"/></symbol><symbol id="b" overflow="visible"><path d="M31.5-13.75v2.5H11.062c.207 2.055.945 3.59 2.219 4.61 1.27 1.023 3.047 1.53 5.328 1.53 1.832 0 3.71-.269 5.64-.812 1.938-.539 3.922-1.367 5.954-2.484v6.75C28.128-.875 26.062-.286 24 .109s-4.133.594-6.204.594c-4.949 0-8.793-1.254-11.53-3.766-2.743-2.519-4.11-6.046-4.11-10.578 0-4.468 1.344-7.976 4.031-10.53C8.883-26.723 12.593-28 17.312-28c4.29 0 7.727 1.297 10.312 3.891 2.582 2.586 3.875 6.04 3.875 10.359zm-8.984-2.906c0-1.656-.485-2.988-1.453-4-.97-1.02-2.235-1.531-3.797-1.531-1.7 0-3.078.476-4.141 1.422-1.055.949-1.71 2.32-1.969 4.109z"/></symbol><symbol id="a" overflow="visible"><path d="M16.453-12.312c-1.824 0-3.195.313-4.11.938-.917.617-1.374 1.527-1.374 2.734 0 1.105.367 1.969 1.109 2.594.738.625 1.766.937 3.078.937 1.645 0 3.031-.586 4.156-1.765C20.437-8.05 21-9.523 21-11.296v-1.016zm13.359-3.281V0h-8.813v-4.047C19.82-2.39 18.5-1.18 17.031-.421 15.57.329 13.788.704 11.687.704c-2.824 0-5.121-.82-6.89-2.469-1.762-1.656-2.641-3.8-2.641-6.437 0-3.207 1.097-5.555 3.297-7.047 2.207-1.5 5.671-2.25 10.39-2.25H21v-.688c0-1.383-.547-2.394-1.64-3.031-1.095-.645-2.794-.969-5.095-.969-1.875 0-3.62.188-5.234.563-1.617.375-3.11.933-4.484 1.672v-6.657c1.863-.457 3.738-.8 5.625-1.03a45.413 45.413 0 0 1 5.671-.36c4.938 0 8.5.976 10.688 2.922 2.188 1.937 3.282 5.101 3.282 9.484z"/></symbol><symbol id="g" overflow="visible"><path d="M13.75-35.109v7.766h9v6.25h-9V-9.5c0 1.273.25 2.132.75 2.578.508.449 1.508.672 3 .672H22V0h-7.5c-3.45 0-5.898-.72-7.344-2.157C5.72-3.6 5-6.05 5-9.499v-11.594H.656v-6.25H5v-7.766z"/></symbol><symbol id="f" overflow="visible"><path d="M22.797-23.344v-14.641h8.797V-.001h-8.797v-3.953c-1.2 1.617-2.523 2.797-3.969 3.547C17.38.33 15.703.703 13.797.703c-3.375 0-6.148-1.337-8.312-4.016C3.328-5.99 2.25-9.431 2.25-13.641c0-4.22 1.078-7.664 3.235-10.344 2.164-2.676 4.937-4.016 8.312-4.016 1.883 0 3.555.383 5.016 1.14 1.457.75 2.785 1.923 3.984 3.516zm-5.75 17.703c1.863 0 3.285-.68 4.266-2.047.988-1.363 1.484-3.348 1.484-5.953 0-2.602-.496-4.586-1.484-5.953-.98-1.375-2.403-2.063-4.266-2.063-1.855 0-3.277.688-4.266 2.063-.992 1.367-1.484 3.352-1.484 5.953 0 2.605.492 4.59 1.484 5.953.989 1.367 2.41 2.047 4.266 2.047z"/></symbol><symbol id="e" overflow="visible"><path d="M18.75-5.64c1.875 0 3.3-.68 4.281-2.048.988-1.363 1.485-3.347 1.485-5.953 0-2.601-.496-4.585-1.485-5.953-.98-1.375-2.406-2.062-4.281-2.062s-3.313.687-4.313 2.062-1.5 3.36-1.5 5.953c0 2.586.5 4.563 1.5 5.938s2.438 2.062 4.313 2.062zm-5.813-17.704c1.208-1.593 2.54-2.765 4-3.515C18.407-27.617 20.095-28 22-28c3.363 0 6.129 1.339 8.297 4.015 2.164 2.68 3.25 6.125 3.25 10.344 0 4.21-1.086 7.652-3.25 10.328C28.129-.632 25.363.703 22 .703c-1.906 0-3.594-.375-5.063-1.125-1.46-.757-2.793-1.937-4-3.53V0H4.204v-37.984h8.735z"/></symbol><symbol id="d" overflow="visible"><path d="M.61-27.344h8.734l7.36 18.547 6.25-18.547h8.734l-11.5 29.938c-1.157 3.04-2.508 5.164-4.047 6.375-1.532 1.219-3.559 1.828-6.078 1.828H5v-5.75h2.734c1.489 0 2.567-.234 3.235-.703.676-.469 1.203-1.313 1.578-2.531l.25-.766z"/></symbol><symbol id="c" overflow="visible"><path d="M4.594-36.453h15.594c4.644 0 8.207 1.031 10.688 3.094 2.476 2.055 3.719 4.984 3.719 8.797 0 3.824-1.243 6.765-3.72 8.828-2.48 2.062-6.042 3.094-10.687 3.094h-6.203V0h-9.39zm9.39 6.813v10.187h5.203c1.82 0 3.227-.44 4.22-1.328 1-.894 1.5-2.156 1.5-3.78s-.5-2.876-1.5-3.75c-.993-.884-2.4-1.329-4.22-1.329z"/></symbol><symbol id="m" overflow="visible"><path d="M4.203-27.344h8.735V0H4.203zm0-10.641h8.735v7.125H4.203z"/></symbol><symbol id="l" overflow="visible"><path d="m11.109-13.984-9.86-13.359h9.25l5.594 8.11 5.657-8.11H31l-9.86 13.312L31.5 0h-9.266l-6.141-8.64L10.015 0H.749z"/></symbol><symbol id="k" overflow="visible"><path d="M4.203-37.984h8.735V0H4.203z"/></symbol><symbol id="j" overflow="visible"><path stroke="green" d="M19.188-22.344c1.477 0 2.598-.32 3.36-.969.769-.656 1.156-1.617 1.156-2.89 0-1.25-.387-2.203-1.157-2.86-.761-.656-1.882-.984-3.359-.984h-5.203v7.703zm.313 15.953c1.894 0 3.316-.398 4.265-1.203.957-.8 1.438-2.004 1.438-3.61 0-1.582-.477-2.765-1.422-3.546-.95-.79-2.375-1.188-4.282-1.188h-5.515v9.547zM28.25-19.5c2.019.586 3.581 1.668 4.687 3.25 1.102 1.574 1.656 3.508 1.656 5.797 0 3.523-1.187 6.148-3.562 7.875C28.657-.86 25.04 0 20.188 0H4.594v-36.453h14.109c5.062 0 8.726.766 11 2.297 2.27 1.531 3.406 3.98 3.406 7.344 0 1.78-.418 3.297-1.25 4.547-.836 1.242-2.04 2.164-3.61 2.765z"/></symbol><symbol id="i" overflow="visible"><path stroke="green" d="M2.86-27.344h23.843v6.11L12.313-6.252h14.39V0H2.25V-6.11l14.406-14.984H2.86z"/></symbol></defs><path d="M130 250c0-5.52-4.469-10-10-10H60c-5.531 0-10 4.48-10 10s4.469 10 10 10h60c5.531 0 10-4.48 10-10zm-40 60c0 5.52 4.469 10 10 10h35c5.531 0 10-4.48 10-10s-4.469-10-10-10h-35c-5.531 0-10 4.48-10 10zm60 50H80c-5.531 0-10 4.48-10 10s4.469 10 10 10h70c5.531 0 10-4.48 10-10s-4.469-10-10-10zm147.05-120 6 60h86.949v-60zM410 240v60h86.949l6-60zm-202.5-20h67.449l-4.898-49c-.551-5.5 3.46-10.398 8.949-10.949 5.629-.563 10.398 3.46 10.949 8.95l5.101 51H390v-50c0-5.52 4.468-10 10-10s10 4.48 10 10v50h94.948l5.102-51c.559-5.49 5.371-9.52 10.949-8.95 5.488.55 9.5 5.45 8.95 10.949l-4.9 49H580c5.531 0 10 4.48 10 10s-4.469 10-10 10h-56.95l-6 60H565c5.531 0 10 4.48 10 10s-4.469 10-10 10h-49.95l-5.1 51a10.003 10.003 0 0 1-10.95 8.95c-5.488-.552-9.5-5.45-8.95-10.95l4.9-49h-84.95v50c0 5.52-4.469 10-10 10s-10-4.48-10-10v-50H305.05l4.899 49c.55 5.5-3.461 10.398-8.95 10.95a10.003 10.003 0 0 1-10.95-8.95l-5.1-51h-64.95c-5.53 0-10-4.48-10-10s4.47-10 10-10h62.95l-6-60h-69.45c-5.53 0-10-4.48-10-10s4.47-10 10-10zM560 440H280c-15.012 0-25.949 19.539-28.949 25.531-2.473 4.93-.46 10.93 4.469 13.398a9.97 9.97 0 0 0 4.469 1.07c3.66 0 7.191-2.03 8.953-5.511 3.308-6.567 9.007-13.77 11.059-14.488h280c5.53 0 10-4.48 10-10s-4.47-10-10-10zm-10 80c0-11.031-8.969-20-20-20s-20 8.969-20 20 8.969 20 20 20 20-8.969 20-20zm20 0c0 22.059-17.941 40-40 40s-40-17.941-40-40 17.941-40 40-40 40 17.941 40 40zm-320 0c0-11.031-8.969-20-20-20s-20 8.969-20 20 8.969 20 20 20 20-8.969 20-20zm20 0c0 22.059-17.941 40-40 40s-40-17.941-40-40 17.941-40 40-40 40 17.941 40 40zm379.83-388.21c-1.629 9.012-40.227 221.05-50.348 251.37-9.7 29.141-36.609 36.84-49.48 36.84h-310c-35.77 0-48.43-24.488-48.949-25.531a10.059 10.059 0 0 1-.902-2.777l-59.867-349.18C127.932 36.032 119.983 20 110.003 20h-30c-4.5.12-10 1.949-10 10s5.5 9.879 10.12 10h19.88c5.53 0 10 4.48 10 10s-4.47 10-10 10h-20c-12.06 0-30-7.989-30-30s17.94-30 30-30h30c26.449 0 38.23 33.07 39.48 36.84.168.48.3.968.37 1.468l59.689 348.17c2.222 3.239 10.77 13.52 30.46 13.52h310c.872-.011 23-.609 30.52-23.16 7.34-22.05 33.11-158.27 47.493-236.84h-438.01c-5.531 0-10-4.48-10-10s4.469-10 10-10h450c2.969 0 5.78 1.32 7.68 3.59a9.964 9.964 0 0 1 2.148 8.2z" fill-rule="evenodd"/></svg>