<?xml version="1.0" encoding="UTF-8"?>
<svg width="700pt" height="700pt" version="1.1" viewBox="0 0 700 700" xmlns="http://www.w3.org/2000/svg" xmlns:xlink="http://www.w3.org/1999/xlink">
 <defs>
  <symbol id="n" overflow="visible">
   <path d="m33.5-2c-1.7305 0.89844-3.5312 1.5703-5.4062 2.0156-1.8672 0.45703-3.8203 0.6875-5.8594 0.6875-6.0625 0-10.871-1.6914-14.422-5.0781-3.5547-3.3945-5.3281-8-5.3281-13.812 0-5.8203 1.7734-10.43 5.3281-13.828 3.5508-3.3945 8.3594-5.0938 14.422-5.0938 2.0391 0 3.9922 0.23047 5.8594 0.6875 1.875 0.44922 3.6758 1.1211 5.4062 2.0156v7.5469c-1.7422-1.1875-3.4609-2.0547-5.1562-2.6094-1.6875-0.55078-3.4688-0.82812-5.3438-0.82812-3.3555 0-5.9961 1.0742-7.9219 3.2188-1.918 2.1484-2.875 5.1094-2.875 8.8906 0 3.7617 0.95703 6.7148 2.875 8.8594 1.9258 2.1484 4.5664 3.2188 7.9219 3.2188 1.875 0 3.6562-0.27344 5.3438-0.82812 1.6953-0.55078 3.4141-1.4219 5.1562-2.6094z"></path>
  </symbol>
  <symbol id="h" overflow="visible">
   <path d="m24.516-19.891c-0.77344-0.36328-1.5391-0.62891-2.2969-0.79688-0.75-0.17578-1.5078-0.26562-2.2656-0.26562-2.25 0-3.9844 0.72656-5.2031 2.1719-1.2109 1.4375-1.8125 3.5-1.8125 6.1875v12.594h-8.7344v-27.344h8.7344v4.4844c1.125-1.7812 2.4141-3.082 3.875-3.9062 1.457-0.82031 3.2031-1.2344 5.2344-1.2344 0.28906 0 0.60938 0.011719 0.95312 0.03125 0.34375 0.023438 0.83594 0.074219 1.4844 0.15625z"></path>
  </symbol>
  <symbol id="b" overflow="visible">
   <path d="m31.5-13.75v2.5h-20.438c0.20703 2.0547 0.94531 3.5898 2.2188 4.6094 1.2695 1.0234 3.0469 1.5312 5.3281 1.5312 1.832 0 3.7109-0.26953 5.6406-0.8125 1.9375-0.53906 3.9219-1.3672 5.9531-2.4844v6.75c-2.0742 0.78125-4.1406 1.3711-6.2031 1.7656s-4.1328 0.59375-6.2031 0.59375c-4.9492 0-8.793-1.2539-11.531-3.7656-2.7422-2.5195-4.1094-6.0469-4.1094-10.578 0-4.4688 1.3438-7.9766 4.0312-10.531 2.6953-2.5508 6.4062-3.8281 11.125-3.8281 4.2891 0 7.7266 1.2969 10.312 3.8906 2.582 2.5859 3.875 6.0391 3.875 10.359zm-8.9844-2.9062c0-1.6562-0.48438-2.9883-1.4531-4-0.96875-1.0195-2.2344-1.5312-3.7969-1.5312-1.6992 0-3.0781 0.47656-4.1406 1.4219-1.0547 0.94922-1.7109 2.3203-1.9688 4.1094z"></path>
  </symbol>
  <symbol id="a" overflow="visible">
   <path d="m16.453-12.312c-1.8242 0-3.1953 0.3125-4.1094 0.9375-0.91797 0.61719-1.375 1.5273-1.375 2.7344 0 1.1055 0.36719 1.9688 1.1094 2.5938 0.73828 0.625 1.7656 0.9375 3.0781 0.9375 1.6445 0 3.0312-0.58594 4.1562-1.7656 1.125-1.1758 1.6875-2.6484 1.6875-4.4219v-1.0156zm13.359-3.2812v15.594h-8.8125v-4.0469c-1.1797 1.6562-2.5 2.8672-3.9688 3.625-1.4609 0.75-3.2422 1.125-5.3438 1.125-2.8242 0-5.1211-0.82031-6.8906-2.4688-1.7617-1.6562-2.6406-3.8008-2.6406-6.4375 0-3.207 1.0977-5.5547 3.2969-7.0469 2.207-1.5 5.6719-2.25 10.391-2.25h5.1562v-0.6875c0-1.3828-0.54688-2.3945-1.6406-3.0312-1.0938-0.64453-2.793-0.96875-5.0938-0.96875-1.875 0-3.6211 0.1875-5.2344 0.5625-1.6172 0.375-3.1094 0.93359-4.4844 1.6719v-6.6562c1.8633-0.45703 3.7383-0.80078 5.625-1.0312 1.8945-0.23828 3.7852-0.35938 5.6719-0.35938 4.9375 0 8.5 0.97656 10.688 2.9219 2.1875 1.9375 3.2812 5.1016 3.2812 9.4844z"></path>
  </symbol>
  <symbol id="g" overflow="visible">
   <path d="m13.75-35.109v7.7656h9v6.25h-9v11.594c0 1.2734 0.25 2.1328 0.75 2.5781 0.50781 0.44922 1.5078 0.67188 3 0.67188h4.5v6.25h-7.5c-3.4492 0-5.8984-0.71875-7.3438-2.1562-1.4375-1.4453-2.1562-3.8945-2.1562-7.3438v-11.594h-4.3438v-6.25h4.3438v-7.7656z"></path>
  </symbol>
  <symbol id="f" overflow="visible">
   <path d="m22.797-23.344v-14.641h8.7969v37.984h-8.7969v-3.9531c-1.1992 1.6172-2.5234 2.7969-3.9688 3.5469-1.4492 0.73828-3.125 1.1094-5.0312 1.1094-3.375 0-6.1484-1.3359-8.3125-4.0156-2.1562-2.6758-3.2344-6.1172-3.2344-10.328 0-4.2188 1.0781-7.6641 3.2344-10.344 2.1641-2.6758 4.9375-4.0156 8.3125-4.0156 1.8828 0 3.5547 0.38281 5.0156 1.1406 1.457 0.75 2.7852 1.9219 3.9844 3.5156zm-5.75 17.703c1.8633 0 3.2852-0.67969 4.2656-2.0469 0.98828-1.3633 1.4844-3.3477 1.4844-5.9531 0-2.6016-0.49609-4.5859-1.4844-5.9531-0.98047-1.375-2.4023-2.0625-4.2656-2.0625-1.8555 0-3.2773 0.6875-4.2656 2.0625-0.99219 1.3672-1.4844 3.3516-1.4844 5.9531 0 2.6055 0.49219 4.5898 1.4844 5.9531 0.98828 1.3672 2.4102 2.0469 4.2656 2.0469z"></path>
  </symbol>
  <symbol id="e" overflow="visible">
   <path d="m18.75-5.6406c1.875 0 3.3008-0.67969 4.2812-2.0469 0.98828-1.3633 1.4844-3.3477 1.4844-5.9531 0-2.6016-0.49609-4.5859-1.4844-5.9531-0.98047-1.375-2.4062-2.0625-4.2812-2.0625s-3.3125 0.6875-4.3125 2.0625-1.5 3.3594-1.5 5.9531c0 2.5859 0.5 4.5625 1.5 5.9375s2.4375 2.0625 4.3125 2.0625zm-5.8125-17.703c1.207-1.5938 2.5391-2.7656 4-3.5156 1.4688-0.75781 3.1562-1.1406 5.0625-1.1406 3.3633 0 6.1289 1.3398 8.2969 4.0156 2.1641 2.6797 3.25 6.125 3.25 10.344 0 4.2109-1.0859 7.6523-3.25 10.328-2.168 2.6797-4.9336 4.0156-8.2969 4.0156-1.9062 0-3.5938-0.375-5.0625-1.125-1.4609-0.75781-2.793-1.9375-4-3.5312v3.9531h-8.7344v-37.984h8.7344z"></path>
  </symbol>
  <symbol id="d" overflow="visible">
   <path d="m0.60938-27.344h8.7344l7.3594 18.547 6.25-18.547h8.7344l-11.5 29.938c-1.1562 3.0391-2.5078 5.1641-4.0469 6.375-1.5312 1.2188-3.5586 1.8281-6.0781 1.8281h-5.0625v-5.75h2.7344c1.4883 0 2.5664-0.23438 3.2344-0.70312 0.67578-0.46875 1.2031-1.3125 1.5781-2.5312l0.25-0.76562z"></path>
  </symbol>
  <symbol id="c" overflow="visible">
   <path d="m4.5938-36.453h15.594c4.6445 0 8.207 1.0312 10.688 3.0938 2.4766 2.0547 3.7188 4.9844 3.7188 8.7969 0 3.8242-1.2422 6.7656-3.7188 8.8281-2.4805 2.0625-6.043 3.0938-10.688 3.0938h-6.2031v12.641h-9.3906zm9.3906 6.8125v10.188h5.2031c1.8203 0 3.2266-0.44141 4.2188-1.3281 1-0.89453 1.5-2.1562 1.5-3.7812s-0.5-2.875-1.5-3.75c-0.99219-0.88281-2.3984-1.3281-4.2188-1.3281z"></path>
  </symbol>
  <symbol id="m" overflow="visible">
   <path d="m4.2031-27.344h8.7344v27.344h-8.7344zm0-10.641h8.7344v7.125h-8.7344z"></path>
  </symbol>
  <symbol id="l" overflow="visible">
   <path d="m11.109-13.984-9.8594-13.359h9.25l5.5938 8.1094 5.6562-8.1094h9.25l-9.8594 13.312 10.359 14.031h-9.2656l-6.1406-8.6406-6.0781 8.6406h-9.2656z"></path>
  </symbol>
  <symbol id="k" overflow="visible">
   <path d="m4.2031-37.984h8.7344v37.984h-8.7344z"></path>
  </symbol>
  <symbol id="j" overflow="visible">
   <path stroke="green" d="m19.188-22.344c1.4766 0 2.5977-0.32031 3.3594-0.96875 0.76953-0.65625 1.1562-1.6172 1.1562-2.8906 0-1.25-0.38672-2.2031-1.1562-2.8594-0.76172-0.65625-1.8828-0.98438-3.3594-0.98438h-5.2031v7.7031zm0.3125 15.953c1.8945 0 3.3164-0.39844 4.2656-1.2031 0.95703-0.80078 1.4375-2.0039 1.4375-3.6094 0-1.582-0.47656-2.7656-1.4219-3.5469-0.94922-0.78906-2.375-1.1875-4.2812-1.1875h-5.5156v9.5469zm8.75-13.109c2.0195 0.58594 3.582 1.668 4.6875 3.25 1.1016 1.5742 1.6562 3.5078 1.6562 5.7969 0 3.5234-1.1875 6.1484-3.5625 7.875-2.375 1.7188-5.9922 2.5781-10.844 2.5781h-15.594v-36.453h14.109c5.0625 0 8.7266 0.76562 11 2.2969 2.2695 1.5312 3.4062 3.9805 3.4062 7.3438 0 1.7812-0.41797 3.2969-1.25 4.5469-0.83594 1.2422-2.0391 2.1641-3.6094 2.7656z"></path>
  </symbol>
  <symbol id="i" overflow="visible">
   <path stroke="green" d="m2.8594-27.344h23.844v6.1094l-14.391 14.984h14.391v6.25h-24.453v-6.1094l14.406-14.984h-13.797z"></path>
  </symbol>
 </defs>
 <g>
  <path d="m130 250c0-5.5195-4.4688-10-10-10h-60c-5.5312 0-10 4.4805-10 10s4.4688 10 10 10h60c5.5312 0 10-4.4805 10-10zm-40 60c0 5.5195 4.4688 10 10 10h35c5.5312 0 10-4.4805 10-10s-4.4688-10-10-10h-35c-5.5312 0-10 4.4805-10 10zm60 50h-70c-5.5312 0-10 4.4805-10 10s4.4688 10 10 10h70c5.5312 0 10-4.4805 10-10s-4.4688-10-10-10zm147.05-120 6 60h86.949v-60zm112.95 0v60h86.949l6-60zm-202.5-20h67.449l-4.8984-49c-0.55078-5.5 3.4609-10.398 8.9492-10.949 5.6289-0.5625 10.398 3.4609 10.949 8.9492l5.1016 51h94.949v-50c0-5.5195 4.4688-10 10-10s10 4.4805 10 10v50h94.949l5.1016-51c0.55859-5.4883 5.3711-9.5195 10.949-8.9492 5.4883 0.55078 9.5 5.4492 8.9492 10.949l-4.8984 49h54.949c5.5312 0 10 4.4805 10 10s-4.4688 10-10 10h-56.949l-6 60h47.949c5.5312 0 10 4.4805 10 10s-4.4688 10-10 10h-49.949l-5.1016 51c-0.51953 5.1484-4.8594 9-9.9375 9-0.33203 0-0.66016-0.011719-1.0117-0.050781-5.4883-0.55078-9.5-5.4492-8.9492-10.949l4.8984-49h-84.949v50c0 5.5195-4.4688 10-10 10s-10-4.4805-10-10v-50h-84.949l4.8984 49c0.55078 5.5-3.4609 10.398-8.9492 10.949-0.35156 0.039062-0.67969 0.050781-1.0117 0.050781-5.0781 0-9.418-3.8516-9.9375-9l-5.1016-51h-64.949c-5.5312 0-10-4.4805-10-10s4.4688-10 10-10h62.949l-6-60h-69.449c-5.5312 0-10-4.4805-10-10s4.4688-10 10-10zm352.5 220h-280c-15.012 0-25.949 19.539-28.949 25.531-2.4727 4.9297-0.46094 10.93 4.4688 13.398 1.4297 0.71875 2.9688 1.0703 4.4688 1.0703 3.6602 0 7.1914-2.0312 8.9531-5.5117 3.3086-6.5664 9.0078-13.77 11.059-14.488h280c5.5312 0 10-4.4805 10-10s-4.4688-10-10-10zm-10 80c0-11.031-8.9688-20-20-20s-20 8.9688-20 20 8.9688 20 20 20 20-8.9688 20-20zm20 0c0 22.059-17.941 40-40 40s-40-17.941-40-40 17.941-40 40-40 40 17.941 40 40zm-320 0c0-11.031-8.9688-20-20-20s-20 8.9688-20 20 8.9688 20 20 20 20-8.9688 20-20zm20 0c0 22.059-17.941 40-40 40s-40-17.941-40-40 17.941-40 40-40 40 17.941 40 40zm379.83-388.21c-1.6289 9.0117-40.227 221.05-50.348 251.37-9.6992 29.141-36.609 36.84-49.48 36.84h-310c-35.77 0-48.43-24.488-48.949-25.531-0.42969-0.87891-0.74219-1.8086-0.90234-2.7773l-59.867-349.18c-2.3516-6.4805-10.301-22.512-20.281-22.512h-30c-4.5 0.12109-10 1.9492-10 10s5.5 9.8789 10.121 10h19.879c5.5312 0 10 4.4805 10 10s-4.4688 10-10 10h-20c-12.059 0-30-7.9883-30-30s17.941-30 30-30h30c26.449 0 38.23 33.07 39.48 36.84 0.16797 0.48047 0.30078 0.96875 0.37109 1.4688l59.688 348.17c2.2227 3.2383 10.77 13.52 30.461 13.52h310c0.87109-0.011719 23-0.60938 30.52-23.16 7.3398-22.051 33.109-158.27 47.492-236.84h-438.01c-5.5312 0-10-4.4805-10-10s4.4688-10 10-10h450c2.9688 0 5.7812 1.3203 7.6797 3.5898 1.8984 2.2812 2.6914 5.2812 2.1484 8.1992z" fill-rule="evenodd"></path>
 </g>
</svg>
